<!-- Generator: Adobe Illustrator 17.1.0, SVG Export Plug-In  -->
<svg version="1.1"
	 xmlns="http://www.w3.org/2000/svg" xmlns:xlink="http://www.w3.org/1999/xlink" xmlns:a="http://ns.adobe.com/AdobeSVGViewerExtensions/3.0/"
	 x="0px" y="0px" width="107.5px" height="35.7px" viewBox="0 0 107.5 35.7" enable-background="new 0 0 107.5 35.7"
	 xml:space="preserve">
<defs>
</defs>
<g>
	<g>
		<path fill-rule="evenodd" clip-rule="evenodd" fill="#FBF9F2" stroke="#CCCCCC" stroke-width="0.25" stroke-miterlimit="10" d="
			M15.6,31.3c0,0,3.9,0.2,3.9-3.1l0.1-11.4l4.8-7l0.1,14.7C24.4,24.6,25.1,34,15.6,31.3z"/>
		<path fill-rule="evenodd" clip-rule="evenodd" fill="#FBF9F2" stroke="#CCCCCC" stroke-width="0.25" stroke-miterlimit="10" d="
			M0.1,9.9v20.9c0,0,0.2,4.8,5,4.8h14.6c0,0,4.7-0.5,4.7-5.1v-6c0,0-0.7,6.7-8.2,6.7H8.7c0,0-3.6-0.8-3.6-3.6l0.1-10.8L0.1,9.9z"/>
		<path fill-rule="evenodd" clip-rule="evenodd" fill="#FBF9F2" stroke="#CCCCCC" stroke-width="0.25" stroke-miterlimit="10" d="
			M5.2,11.3V3.5c0,0,1.1-3.4,7.5-3.4s7,3.9,7,3.9l-0.1,11.7l-4.9-3.3c0,0,1.3-7.4-2.3-7.4S5.2,11.3,5.2,11.3z"/>
		<path fill-rule="evenodd" clip-rule="evenodd" fill="#FBF9F2" stroke="#CCCCCC" stroke-width="0.25" stroke-miterlimit="10" d="
			M5.1,15.8v-4.9c0,0,2.7-5.9,7.2-5.9c0,0-3.8,0-2.2,7.4L5.1,15.8z"/>
	</g>
	<g>
		<path fill="#FBF9F2" stroke="#CCCCCC" stroke-width="0.25" stroke-miterlimit="10" d="M39.6,12.1c-0.3,0.3-0.4,0.7-0.4,1.1
			c0,0.4,0.2,0.8,0.5,1.1c0.3,0.3,0.7,0.5,1.1,0.5h1.3c0.9,0,1.7,0.2,2.5,0.6c0.8,0.4,1.4,0.8,2,1.4c0.6,0.6,1,1.3,1.4,2.1
			c0.3,0.8,0.5,1.6,0.5,2.5c0,0.9-0.2,1.7-0.5,2.5c-0.3,0.8-0.8,1.5-1.4,2c-0.6,0.6-1.2,1.1-2,1.4c-0.8,0.4-1.6,0.6-2.5,0.6h-0.2
			h-0.2h-7.6v-5h7.7c0.4,0,0.8-0.2,1.1-0.5c0.3-0.3,0.4-0.7,0.4-1.1c0-0.4-0.2-0.8-0.5-1.1c-0.3-0.3-0.7-0.5-1.2-0.5h-1.1v0
			c-0.9,0-1.7-0.2-2.5-0.6c-0.8-0.4-1.5-0.8-2-1.4c-0.6-0.6-1-1.3-1.4-2.1c-0.3-0.8-0.5-1.6-0.5-2.5c0-0.5,0.1-1,0.2-1.6
			c0.1-0.5,0.3-1,0.5-1.4h-2.2l2.2-3.6h5.7h0h0.2h7.7v5h-7.8C40.3,11.6,39.9,11.8,39.6,12.1z"/>
		<path fill="#FBF9F2" stroke="#CCCCCC" stroke-width="0.25" stroke-miterlimit="10" d="M59.9,6.7c1.6,0,3.1,0.3,4.4,0.8
			c1.3,0.5,2.5,1.2,3.4,2.2c0.9,0.9,1.7,2.1,2.2,3.4c0.5,1.3,0.8,2.8,0.8,4.3c0,1.4-0.3,2.8-0.8,4.1c-0.5,1.3-1.2,2.4-2.2,3.4
			c-0.9,1-2.1,1.8-3.4,2.3C63,27.7,61.5,28,59.9,28c-0.5,0-1,0-1.5-0.1c-0.5-0.1-0.9-0.2-1.4-0.4c-0.4-0.2-0.9-0.4-1.4-0.7
			c-0.5-0.3-1-0.6-1.5-0.9v8.5h-5.1V10.2h-2.8l2.2-3.6h0.7h2.9h2.2v1.5c0.5-0.4,1-0.6,1.5-0.8c0.5-0.2,0.9-0.3,1.4-0.4
			c0.4-0.1,0.9-0.1,1.4-0.2C58.9,6.7,59.4,6.7,59.9,6.7z M59.9,23c0.9,0,1.7-0.2,2.4-0.5c0.7-0.3,1.3-0.8,1.8-1.3
			c0.5-0.5,0.9-1.1,1.1-1.8c0.3-0.7,0.4-1.4,0.4-2.1c0-1.8-0.5-3.2-1.5-4.2c-1-1-2.4-1.5-4.2-1.5c-0.7,0-1.4,0.1-2.1,0.4
			c-0.7,0.3-1.3,0.6-1.8,1.1c-0.5,0.5-1,1.1-1.3,1.8c-0.3,0.7-0.5,1.5-0.5,2.4c0,0.7,0.2,1.4,0.5,2.1c0.3,0.7,0.8,1.3,1.3,1.8
			c0.5,0.5,1.1,1,1.8,1.3C58.5,22.8,59.2,23,59.9,23z"/>
		<path fill="#FBF9F2" stroke="#CCCCCC" stroke-width="0.25" stroke-miterlimit="10" d="M84,23v5h-2.9v0c-1.4,0-2.7-0.3-3.9-0.8
			C76,26.7,74.9,26,74,25.1c-0.9-0.9-1.6-2-2.2-3.2c-0.5-1.2-0.8-2.5-0.8-3.9V5.3h-2.9l2.2-3.6h3.6l0,0h2.2v7.7V18
			c0,0.7,0.1,1.3,0.4,1.9c0.3,0.6,0.6,1.1,1.1,1.6c0.5,0.5,1,0.8,1.6,1.1c0.6,0.3,1.3,0.4,2,0.4v0H84z"/>
		<path fill="#FBF9F2" stroke="#CCCCCC" stroke-width="0.25" stroke-miterlimit="10" d="M82.4,6.7v-5h5v5H82.4z M82.4,28V8.2h5V28
			H82.4z"/>
		<path fill="#FBF9F2" stroke="#CCCCCC" stroke-width="0.25" stroke-miterlimit="10" d="M101.6,15.2c0.9,0.5,1.6,1.2,2.4,1.9
			c0.7,0.7,1.3,1.5,1.8,2.4c0.5,0.9,0.9,1.8,1.2,2.8c0.3,1,0.4,2,0.4,3.1c0,1.6-0.3,3.2-0.9,4.6c-0.6,1.5-1.5,2.7-2.6,3.9l-3.5-3.5
			c0.7-0.7,1.2-1.4,1.5-2.3c0.4-0.9,0.5-1.8,0.5-2.7c0-1-0.2-1.9-0.6-2.8c-0.4-0.9-0.9-1.6-1.5-2.3c-0.6-0.6-1.4-1.1-2.3-1.5
			c-0.9-0.4-1.8-0.6-2.8-0.6c-0.4,0-0.8,0-1.1,0.1V28h-5V5.3h-2.2l2.2-3.6h3.6h1.4v11.6c1-0.1,1.9-0.4,2.8-0.9
			c0.9-0.5,1.6-1.1,2.3-1.8c0.6-0.7,1.2-1.5,1.5-2.5c0.4-0.9,0.6-1.9,0.6-2.9h5c0,2-0.4,3.8-1.2,5.6C104.2,12.6,103.1,14,101.6,15.2
			z"/>
	</g>
</g>
</svg>
